<?xml version="1.0" encoding="utf-8"?>
<!-- Generator: Adobe Illustrator 15.0.0, SVG Export Plug-In . SVG Version: 6.00 Build 0)  -->
<!DOCTYPE svg PUBLIC "-//W3C//DTD SVG 1.1//EN" "http://www.w3.org/Graphics/SVG/1.1/DTD/svg11.dtd">
<svg version="1.1" id="图层_1" xmlns="http://www.w3.org/2000/svg" xmlns:xlink="http://www.w3.org/1999/xlink" x="0px" y="0px"
	 width="56.25px" height="53.375px" viewBox="-7 -8.25 56.25 53.375" enable-background="new -7 -8.25 56.25 53.375"
	 xml:space="preserve">
<g>
	<path fill="#122C3D" d="M32.77,6.217l-1.824-0.01c0,0,3.363,7.974-1.721,14.723c-0.711,0.942-1.584,1.862-2.658,2.733
		c0.597-1.201,0.931-2.552,0.931-3.979c0-4.663-3.545-8.495-8.084-8.95c-0.299-0.03-0.602-0.047-0.909-0.047
		c-4.969,0-8.996,4.026-8.996,8.997c0,4.967,4.027,8.994,8.996,8.994c0.308,0,0.61-0.018,0.909-0.047
		c0.909-0.092,1.776-0.316,2.585-0.658c4.214-1.16,8.822-3.125,11.102-10.923c0.213-0.726,0.399-1.503,0.568-2.333
		C34.385,10.164,32.824,6.347,32.77,6.217z"/>
	<path fill="#F2F4F9" d="M18.502,7.167c-6.916,0-12.52,5.604-12.52,12.517c0,6.914,5.604,12.521,12.52,12.521
		c6.91,0,12.514-5.604,12.514-12.521C31.016,12.769,25.412,7.167,18.502,7.167z M24.35,12.424c1.607-0.928,2.979,0.021,3.906,1.627
		c0.928,1.607,1.063,3.267-0.544,4.194c-1.608,0.93-4.371,0.786-5.299-0.821C21.484,15.818,22.743,13.353,24.35,12.424z
		 M12.648,26.943c-1.607,0.93-2.977-0.021-3.905-1.627c-0.928-1.607-1.063-3.267,0.545-4.195c1.606-0.928,4.37-0.785,5.298,0.824
		C15.514,23.553,14.257,26.016,12.648,26.943z M14.586,17.424c-0.928,1.607-3.689,1.751-5.298,0.822
		c-1.608-0.929-1.474-2.588-0.544-4.195c0.929-1.608,2.297-2.554,3.906-1.626C14.257,13.353,15.514,15.816,14.586,17.424z
		 M18.5,30.949c-1.857,0-3.361-0.713-3.361-2.568c0-1.857,1.504-4.178,3.361-4.178c1.855,0,3.359,2.32,3.359,4.178
		C21.859,30.236,20.355,30.949,18.5,30.949z M18.5,15.166c-1.855,0-3.361-2.32-3.361-4.177c0-1.857,1.506-2.569,3.361-2.569
		c1.855,0,3.359,0.712,3.359,2.569C21.859,12.845,20.355,15.166,18.5,15.166z M28.255,25.316c-0.929,1.606-2.298,2.557-3.905,1.627
		c-1.604-0.928-2.865-3.394-1.938-5c0.927-1.607,3.691-1.75,5.299-0.822S29.184,23.709,28.255,25.316z"/>
	<circle fill="#98D24D" cx="18.5" cy="19.684" r="1.566"/>
	<circle fill="#98D24D" cx="18.5" cy="16.706" r="0.668"/>
	<circle fill="#98D24D" cx="18.5" cy="22.662" r="0.668"/>
	<circle fill="#98D24D" cx="20.605" cy="17.578" r="0.667"/>
	<circle fill="#98D24D" cx="16.393" cy="21.791" r="0.668"/>
	<circle fill="#98D24D" cx="20.605" cy="21.791" r="0.668"/>
	<circle fill="#98D24D" cx="16.393" cy="17.578" r="0.667"/>
	<circle fill="#98D24D" cx="21.467" cy="19.718" r="0.667"/>
	<circle fill="#98D24D" cx="15.509" cy="19.718" r="0.667"/>
	<path fill="#E1E4EA" d="M17.909,17.01l-0.005,0.003l0.011,0.01C17.914,17.019,17.911,17.015,17.909,17.01z M17.977,18.214
		l-1.11-1.109c0.261,0.262,0.261,0.685,0,0.944c-0.261,0.261-0.685,0.261-0.944,0l1.109,1.111
		C17.188,18.72,17.535,18.373,17.977,18.214z M28.58,24.674c-0.094,0.215-0.201,0.43-0.325,0.645
		c-0.929,1.607-2.298,2.556-3.905,1.625c-1.604-0.928-2.865-3.391-1.938-4.998c0.422-0.729,1.223-1.155,2.121-1.317l-3.317-3.317
		c0.108,0.244,0.063,0.541-0.138,0.74c-0.26,0.262-0.684,0.26-0.943,0c-0.207-0.205-0.248-0.513-0.126-0.762l-0.952-0.953
		c0.07,0.105,0.112,0.234,0.112,0.371c0,0.368-0.299,0.668-0.667,0.668c-0.115,0-0.223-0.032-0.318-0.083l0.982,0.981
		c0.531,0.25,0.9,0.788,0.9,1.413c0,0.865-0.7,1.564-1.564,1.564c-0.652,0-1.212-0.398-1.445-0.967l-1.017-1.016
		c0.093,0.112,0.151,0.26,0.151,0.418c0,0.094-0.021,0.184-0.058,0.266c-0.095,0.252-0.336,0.434-0.622,0.434
		c-0.178,0-0.337-0.068-0.457-0.18l1.01,1.008c0.256-0.145,0.586-0.111,0.803,0.105c0.261,0.26,0.261,0.684,0,0.945
		c-0.25,0.25-0.646,0.256-0.91,0.026l-0.003,0.008l1.981,1.981c0.185-0.047,0.373-0.077,0.566-0.077
		c1.796,0,3.261,2.174,3.353,3.996l2.533,2.532c2.176-1.16,3.969-2.944,5.139-5.114L28.58,24.674z M18.5,23.33
		c-0.369,0-0.668-0.297-0.668-0.666s0.299-0.668,0.668-0.668c0.368,0,0.667,0.299,0.667,0.668S18.868,23.33,18.5,23.33z
		 M21.078,22.264c-0.26,0.262-0.684,0.262-0.943,0c-0.261-0.262-0.261-0.686,0-0.945c0.26-0.26,0.684-0.26,0.943,0
		C21.339,21.578,21.339,22.002,21.078,22.264z M21.467,20.385c-0.367,0-0.668-0.299-0.668-0.668c0-0.094,0.02-0.184,0.057-0.266
		c0.096-0.252,0.336-0.436,0.625-0.436c0.367,0,0.668,0.299,0.668,0.668c0,0.094-0.021,0.184-0.057,0.266
		C21.996,20.203,21.753,20.385,21.467,20.385z"/>
</g>
<g display="none">
	<g display="inline">
		<g>
			<polygon fill="#80BB67" points="39.488,70.279 75.646,70.279 75.646,31.199 64.421,17.898 39.488,17.898 			"/>
		</g>
		<g>
			<polygon fill="#80BB67" points="64.373,17.898 64.373,31.199 75.646,31.199 64.421,17.898 			"/>
			<polygon fill="#80BB67" points="75.646,44.551 75.646,31.199 64.373,31.199 			"/>
		</g>
	</g>
	<g display="inline">
		<g>
			<polygon fill="#F2F4F9" points="34.857,65.691 70.532,71.598 76.91,33.041 68.008,18.086 43.409,14.014 			"/>
		</g>
		<g>
			<polygon fill="#FFFFFF" points="67.961,18.077 65.79,31.201 76.91,33.041 68.008,18.086 			"/>
			<polygon fill="#DFE2E8" points="74.73,46.213 76.91,33.041 65.79,31.201 			"/>
		</g>
	</g>
	<path display="inline" fill="none" stroke="#80BB67" stroke-width="0.5" stroke-miterlimit="10" d="M51.714,26.256
		c0,0-1.077,10.443,4.46,17.723c6.43,8.451,13.502,7.192,13.502,7.192"/>
	
		<line display="inline" fill="none" stroke="#98D24D" stroke-width="0.1" stroke-miterlimit="10" x1="50.984" y1="37.668" x2="62.354" y2="51.561"/>
	<circle display="inline" fill="#7AC943" cx="57.468" cy="44.991" r="0.986"/>
	<circle display="inline" fill="#7AC943" cx="62.163" cy="51.046" r="0.536"/>
	<circle display="inline" fill="#7AC943" cx="51.163" cy="38.046" r="0.536"/>
</g>
<g id="Shadow" display="none" opacity="0.302">
	<g display="inline">
		<path d="M65.195,29.633H36.889c-1.158,0-2.098,0.938-2.098,2.098v27.259c0,1.157,0.939,2.097,2.098,2.097h28.307
			c1.156,0,2.097-0.938,2.097-2.097V31.729C67.291,30.57,66.352,29.633,65.195,29.633z"/>
	</g>
</g>
<g id="Background_2_" display="none">
	<g display="inline">
		<path fill="#ECEAE0" d="M65.195,28.584H36.889c-1.158,0-2.098,0.938-2.098,2.098v27.258c0,1.158,0.939,2.098,2.098,2.098h28.307
			c1.156,0,2.097-0.938,2.097-2.098V30.682C67.291,29.521,66.352,28.584,65.195,28.584z"/>
	</g>
</g>
<g id="Sky" display="none">
	<g display="inline">
		<path fill="#98DCF0" d="M63.621,30.682h-25.16c-0.869,0-1.572,0.703-1.572,1.571v15.202h28.307V32.253
			C65.195,31.385,64.49,30.682,63.621,30.682z"/>
	</g>
</g>
<g id="Mountain_back" display="none">
	<g display="inline">
		<polygon fill="#699B54" points="54.492,41.159 49.029,47.455 59.957,47.455 		"/>
	</g>
</g>
<g id="Mountain__x26__griund" display="none">
	<g display="inline">
		<path fill="#80BB67" d="M53.547,47.455l-7.283-8.393l-7.283,8.393h-2.092v3.669c0,0.869,0.703,1.573,1.572,1.573h25.16
			c0.869,0,1.574-0.704,1.574-1.573v-3.669H53.547z"/>
	</g>
</g>
<g id="Sun" display="none">
	<g display="inline">
		<circle fill="#FFE68E" cx="59.953" cy="35.923" r="2.097"/>
	</g>
</g>
</svg>
