<?xml version="1.0" encoding="utf-8"?>
<!-- Generator: Adobe Illustrator 15.0.0, SVG Export Plug-In . SVG Version: 6.00 Build 0)  -->
<!DOCTYPE svg PUBLIC "-//W3C//DTD SVG 1.1//EN" "http://www.w3.org/Graphics/SVG/1.1/DTD/svg11.dtd">
<svg version="1.1" id="图层_1" xmlns="http://www.w3.org/2000/svg" xmlns:xlink="http://www.w3.org/1999/xlink" x="0px" y="0px"
	 width="100px" height="100px" viewBox="0 0 100 100" enable-background="new 0 0 100 100" xml:space="preserve">
<path fill="#F6B344" d="M73.517,49.05c0,10.264-9.274,21.557-16.575,26.487c-8.507,5.744-20.596-16.223-20.596-26.487
	c0-10.265,8.322-18.587,18.585-18.587C65.197,30.463,73.517,38.785,73.517,49.05z"/>
<g>
	<g>
		<path fill="#FFFFFF" d="M56.014,26.57h-2.745C41.59,27.31,32.282,37.074,32.282,49.006c0,8.2,3.62,14.753,9.87,18.627v6.454
			c0,1.886,0.7,2.612,1.791,3.342c0.273,0.174,0.448,0.475,0.465,0.807c0.02,0.328,0.053,0.75-0.361,0.852
			c-1.692,0-1.687,1.855-1.687,1.855c0,0.75,0,4.162,0,4.162c0,0.932,0.751,1.683,1.687,1.683h1.127
			c0.902,0,1.561,0.747,1.561,0.747s3.968,3.244,7.907,3.244c3.996,0,7.906-3.244,7.906-3.244s0.658-0.747,1.561-0.747h1.129
			c0.935,0,1.687-0.751,1.687-1.683c0,0,0-3.406,0-4.162c0,0,0.004-1.855-1.687-1.855c-0.414-0.098-0.381-0.53-0.363-0.852
			c0.023-0.332,0.193-0.633,0.464-0.807c1.092-0.729,1.793-1.452,1.793-3.342v-6.454c6.25-3.874,9.871-10.428,9.871-18.627
			C77.001,37.074,67.692,27.308,56.014,26.57z M62.439,62.75l-1.26,0.655v5.99c0,1.024-0.711,1.896-1.707,2.115
			c0,0-1.551,0.731-4.542,0.731s-5.122-0.731-5.122-0.731c-0.996-0.219-1.707-1.091-1.707-2.115V63.4l-1.26-0.65
			c-6.316-3.25-7.643-9.053-7.643-13.338c0-8.592,6.92-15.585,15.441-15.613c8.521,0.028,15.44,7.021,15.44,15.613
			C70.081,53.701,68.755,59.504,62.439,62.75z"/>
	</g>
</g>
<g>
	<path fill="#F05C42" d="M82.97,29.126c0.084-0.55-0.07-1.112-0.424-1.552c-0.207-0.257-0.418-0.514-0.629-0.771
		c-0.363-0.426-0.879-0.687-1.443-0.717c-0.549-0.03-1.102,0.169-1.506,0.553l-3.623,3.443c-0.762,0.735-0.83,1.935-0.16,2.751
		c0.043,0.048,0.078,0.097,0.123,0.147c0.666,0.822,1.857,0.993,2.725,0.38l4.092-2.869C82.579,30.17,82.886,29.678,82.97,29.126z"
		/>
	<path fill="#F05C42" d="M54.432,23.24c0.062-0.002,0.124-0.002,0.183-0.002c1.061-0.007,1.935-0.832,2.003-1.892l0.32-4.984
		c0.035-0.556-0.158-1.104-0.543-1.509c-0.377-0.411-0.912-0.641-1.467-0.643c-0.336,0-0.668,0.002-1.004,0.008
		c-0.557,0.014-1.084,0.259-1.455,0.674c-0.371,0.416-0.557,0.97-0.508,1.523l0.43,4.979C52.482,22.449,53.371,23.255,54.432,23.24z
		"/>
	<path fill="#F05C42" d="M29.193,55.648c-0.242-1.033-1.241-1.692-2.29-1.527l-4.935,0.809c-0.551,0.089-1.038,0.4-1.352,0.863
		c-0.31,0.459-0.42,1.031-0.301,1.573c0.073,0.325,0.153,0.649,0.237,0.972c0.136,0.542,0.488,1,0.978,1.26
		c0.489,0.268,1.067,0.338,1.599,0.15l4.76-1.527c1.006-0.328,1.6-1.374,1.349-2.402C29.224,55.773,29.208,55.707,29.193,55.648z"/>
	<path fill="#F05C42" d="M33.988,33.48c0.042-0.052,0.076-0.102,0.117-0.148c0.655-0.839,0.552-2.035-0.234-2.748l-3.696-3.358
		c-0.416-0.374-0.963-0.562-1.52-0.52c-0.552,0.047-1.07,0.315-1.417,0.75c-0.213,0.263-0.416,0.525-0.618,0.792
		c-0.336,0.449-0.476,1.008-0.381,1.56c0.094,0.547,0.409,1.031,0.872,1.346l4.16,2.77C32.151,34.512,33.341,34.316,33.988,33.48z"
		/>
	<path fill="#F05C42" d="M89.185,55.09c-0.324-0.451-0.818-0.758-1.371-0.836l-4.943-0.698c-1.047-0.147-2.033,0.54-2.256,1.575
		c-0.025,0.054-0.037,0.13-0.051,0.188c-0.244,1.034,0.371,2.058,1.391,2.362l4.785,1.422c0.547,0.156,1.115,0.09,1.594-0.18
		c0.479-0.281,0.826-0.752,0.955-1.291c0.072-0.338,0.145-0.654,0.211-0.974C89.624,56.109,89.503,55.547,89.185,55.09z"/>
</g>
<circle fill="#FFFFFF" cx="48.938" cy="47.25" r="1"/>
<circle fill="#FFFFFF" cx="60.938" cy="47.25" r="1"/>
<path fill="#FFFFFF" d="M51,57c0,0,2.016,0.984,6.625,0C53.906,61.5,51,57,51,57z"/>
</svg>
