<?xml version="1.0" encoding="utf-8"?>
<!-- Generator: Adobe Illustrator 15.0.0, SVG Export Plug-In . SVG Version: 6.00 Build 0)  -->
<!DOCTYPE svg PUBLIC "-//W3C//DTD SVG 1.1//EN" "http://www.w3.org/Graphics/SVG/1.1/DTD/svg11.dtd">
<svg version="1.1" id="图层_1" xmlns="http://www.w3.org/2000/svg" xmlns:xlink="http://www.w3.org/1999/xlink" x="0px" y="0px"
	 width="100px" height="100px" viewBox="0 0 100 100" enable-background="new 0 0 100 100" xml:space="preserve">
<path fill="#8CB344" d="M73.517,49.05c0,10.264-9.274,21.557-16.575,26.487c-8.507,5.744-20.596-16.223-20.596-26.487
	c0-10.265,8.322-18.587,18.585-18.587C65.197,30.463,73.517,38.785,73.517,49.05z"/>
<g>
	<g>
		<path fill="#FFFFFF" d="M56.014,26.57h-2.745C41.59,27.31,32.282,37.074,32.282,49.006c0,8.2,3.62,14.753,9.87,18.627v6.454
			c0,1.886,0.7,2.612,1.791,3.342c0.273,0.174,0.448,0.475,0.465,0.807c0.02,0.328,0.053,0.75-0.361,0.852
			c-1.692,0-1.687,1.855-1.687,1.855c0,0.75,0,4.162,0,4.162c0,0.932,0.751,1.683,1.687,1.683h1.127
			c0.902,0,1.561,0.747,1.561,0.747s3.968,3.244,7.907,3.244c3.996,0,7.906-3.244,7.906-3.244s0.658-0.747,1.561-0.747h1.129
			c0.935,0,1.687-0.751,1.687-1.683c0,0,0-3.406,0-4.162c0,0,0.004-1.855-1.687-1.855c-0.414-0.098-0.381-0.53-0.363-0.852
			c0.023-0.332,0.193-0.633,0.464-0.807c1.092-0.729,1.793-1.452,1.793-3.342v-6.454c6.25-3.874,9.871-10.428,9.871-18.627
			C77.001,37.074,67.692,27.308,56.014,26.57z M62.439,62.75l-1.26,0.655v5.99c0,1.024-0.711,1.896-1.707,2.115
			c0,0-1.551,0.731-4.542,0.731s-5.122-0.731-5.122-0.731c-0.996-0.219-1.707-1.091-1.707-2.115V63.4l-1.26-0.65
			c-6.316-3.25-7.643-9.053-7.643-13.338c0-8.592,6.92-15.585,15.441-15.613c8.521,0.028,15.44,7.021,15.44,15.613
			C70.081,53.701,68.755,59.504,62.439,62.75z"/>
	</g>
</g>
<path fill="#FFFFFF" d="M51,57c0,0,2.959-3.292,6.625,0C53.274,55.665,51,57,51,57z"/>
<path fill="#FFFFFF" d="M58,47.595c0,0,2.027-3.088,3.813,0C61.813,47.595,60.413,45.23,58,47.595z"/>
<path fill="#FFFFFF" d="M47,47.595c0,0,2.027-3.088,3.813,0C50.813,47.595,49.413,45.23,47,47.595z"/>
<text transform="matrix(1.8689 -0.4985 0.2577 0.9662 73.5166 29.1992)" fill="#FFFFFF" font-family="'OratorStd-Slanted'" font-size="5.3102">Z</text>
<text transform="matrix(1.8689 -0.4985 0.2577 0.9662 82.6436 24.396)" fill="#FFFFFF" font-family="'OratorStd-Slanted'" font-size="6.4913">Z</text>
<text transform="matrix(1.8689 -0.4985 0.2577 0.9662 68.7988 32.9463)" fill="#FFFFFF" font-family="'OratorStd-Slanted'" font-size="2.6217">Z</text>
</svg>
