<?xml version="1.0" encoding="utf-8"?>
<!-- Generator: Adobe Illustrator 15.0.0, SVG Export Plug-In . SVG Version: 6.00 Build 0)  -->
<!DOCTYPE svg PUBLIC "-//W3C//DTD SVG 1.1//EN" "http://www.w3.org/Graphics/SVG/1.1/DTD/svg11.dtd">
<svg version="1.1" id="图层_1" xmlns="http://www.w3.org/2000/svg" xmlns:xlink="http://www.w3.org/1999/xlink" x="0px" y="0px"
	 width="100px" height="100px" viewBox="0 0 100 100" enable-background="new 0 0 100 100" xml:space="preserve">
<path fill="#FFFFEB" d="M77.94,66.589H36.227l-0.806,2.943h-0.025v3.451h43.376v-3.451h-0.026L77.94,66.589z M63.981,71.63H50.059
	v-1.72h13.923V71.63z"/>
<path fill="#FFFFEB" d="M75.21,50.283l-3.11,3.079v9.283h-30.46V40.363H72.1v8.943l2.806-2.78c-0.323-0.545-0.496-1.168-0.496-1.811
	c0-0.853,0.302-1.636,0.801-2.25v-5.217H38.527v28.509H75.21V50.283z"/>
<path fill="#5CA3CC" d="M77.975,41.967c-1.519,0-2.75,1.229-2.75,2.748c0,0.736,0.293,1.399,0.76,1.89l-7.58,7.509
	c-0.288-0.101-0.598-0.16-0.919-0.16c-0.564,0-1.089,0.166-1.522,0.46L60.3,47.957c0.279-0.431,0.443-0.943,0.443-1.499
	c0-1.515-1.23-2.743-2.748-2.743c-1.516,0-2.745,1.229-2.745,2.743c0,0.546,0.159,1.053,0.434,1.476l-7.156,7.082
	c-0.376-0.199-0.807-0.313-1.269-0.313c-1.516,0-2.745,1.229-2.745,2.747c0,1.52,1.229,2.747,2.745,2.747s2.746-1.228,2.746-2.747
	c0-0.607-0.197-1.162-0.529-1.617l7.099-7.023c0.414,0.254,0.9,0.4,1.42,0.4c0.512,0,0.991-0.142,1.406-0.387l5.704,6.513
	c-0.23,0.405-0.368,0.869-0.368,1.367c0,1.514,1.23,2.746,2.748,2.746c1.519,0,2.748-1.232,2.748-2.746
	c0-0.733-0.291-1.401-0.76-1.894l7.584-7.505c0.288,0.104,0.595,0.159,0.917,0.159c1.517,0,2.745-1.228,2.745-2.747
	S79.491,41.967,77.975,41.967z"/>
<polygon fill="#FFFFFF" points="45.384,53.4 45.384,49.603 44.653,49.603 43.643,50.069 43.789,50.737 44.514,50.391 44.524,50.391 
	44.524,53.4 "/>
<path fill="#FFFFFF" d="M62.991,45.901l-0.486,0.438v0.537h2.694v-0.731h-1.438v-0.012l0.351-0.292
	c0.556-0.49,1.012-0.999,1.012-1.643c0-0.684-0.468-1.186-1.332-1.186c-0.508,0-0.959,0.175-1.239,0.391l0.252,0.632
	c0.198-0.147,0.485-0.309,0.812-0.309c0.438,0,0.62,0.244,0.62,0.554C64.229,44.725,63.825,45.152,62.991,45.901z"/>
<path fill="#FFFFFF" d="M62.228,61.46c-0.363,0-0.726-0.147-0.882-0.235l-0.182,0.674c0.222,0.134,0.636,0.262,1.128,0.262
	c0.964,0,1.554-0.488,1.554-1.158c0-0.502-0.368-0.848-0.824-0.93v-0.012c0.468-0.158,0.696-0.478,0.696-0.882
	c0-0.521-0.45-0.947-1.257-0.947c-0.497,0-0.947,0.142-1.175,0.287l0.182,0.643c0.151-0.093,0.479-0.229,0.789-0.229
	c0.379,0,0.561,0.17,0.561,0.396c0,0.323-0.374,0.439-0.672,0.439h-0.352v0.638h0.362c0.393,0,0.768,0.17,0.768,0.55
	C62.924,61.236,62.689,61.46,62.228,61.46z"/>
<path fill="#FFFFFF" d="M78.88,40.869h0.842v-0.905h0.45v-0.667h-0.45V37.07H78.63l-1.433,2.314v0.58h1.683V40.869z M78.021,39.298
	l0.006-0.013l0.503-0.83c0.128-0.239,0.233-0.462,0.355-0.707h0.019c-0.013,0.245-0.024,0.479-0.024,0.707v0.843H78.021z"/>
</svg>
