<?xml version="1.0" encoding="utf-8"?>
<!-- Generator: Adobe Illustrator 15.0.0, SVG Export Plug-In . SVG Version: 6.00 Build 0)  -->
<!DOCTYPE svg PUBLIC "-//W3C//DTD SVG 1.1//EN" "http://www.w3.org/Graphics/SVG/1.1/DTD/svg11.dtd">
<svg version="1.1" id="图层_1" xmlns="http://www.w3.org/2000/svg" xmlns:xlink="http://www.w3.org/1999/xlink" x="0px" y="0px"
	 width="100px" height="100px" viewBox="0 0 100 100" enable-background="new 0 0 100 100" xml:space="preserve">
<path fill="#F0756C" d="M76.435,63.702l0.957-0.309v-2.179c0-0.497-0.053-0.923-0.157-1.273l-0.003-0.013
	c-0.1-0.328-0.244-0.591-0.433-0.786c-0.104-0.106-0.225-0.199-0.364-0.278v-0.686c0.323,0.131,0.594,0.309,0.811,0.534
	c0.258,0.267,0.451,0.613,0.58,1.036l0.004,0.015c0.123,0.411,0.185,0.896,0.185,1.451v2.404h-0.001
	c0,0.131-0.084,0.253-0.215,0.295l-1.363,0.439V63.702L76.435,63.702z M76.435,56.876v0.622c0.719,0.04,1.37,0.133,1.954,0.278
	c0.793,0.197,1.462,0.492,2.006,0.884l0.001,0.001l0,0c0.534,0.382,0.935,0.847,1.201,1.394C81.865,60.605,82,61.243,82,61.968
	v8.323c0,0.207,0.014,0.39,0.042,0.546c0.031,0.176,0.083,0.318,0.151,0.428c0.003,0.006,0.007,0.012,0.011,0.017
	c0.086,0.121,0.2,0.211,0.346,0.27c0.128,0.051,0.277,0.077,0.446,0.077c0.092,0,0.181-0.013,0.269-0.04
	c0.084-0.026,0.165-0.066,0.241-0.121v0.001c0.055-0.037,0.114-0.086,0.179-0.146l0.146,0.196c-0.167,0.191-0.352,0.368-0.555,0.533
	c-0.267,0.216-0.566,0.411-0.897,0.586v-0.001c-0.331,0.173-0.647,0.302-0.948,0.387c-0.295,0.083-0.578,0.125-0.85,0.125
	c-0.911,0-1.564-0.227-1.959-0.68l-0.004-0.004c-0.129-0.146-0.239-0.329-0.332-0.55c-0.097-0.231-0.173-0.503-0.228-0.813
	c-0.029-0.169-0.19-0.282-0.359-0.253c-0.068,0.012-0.127,0.045-0.171,0.092c-0.299,0.279-0.601,0.531-0.905,0.755
	c-0.063,0.046-0.126,0.091-0.188,0.135v0.743c0.187-0.117,0.371-0.242,0.555-0.378c0.194-0.143,0.388-0.296,0.579-0.459
	c0.042,0.147,0.091,0.286,0.146,0.416c0.118,0.282,0.265,0.522,0.439,0.721l0.002,0.003c0.52,0.595,1.328,0.894,2.426,0.894
	c0.325,0,0.664-0.051,1.017-0.149c0.346-0.098,0.702-0.242,1.068-0.433l-0.001-0.001l0.002-0.001c0.365-0.192,0.699-0.41,1-0.654
	c0.298-0.241,0.562-0.508,0.792-0.802c0.092-0.107,0.102-0.268,0.014-0.386l-0.494-0.668c-0.016-0.024-0.035-0.048-0.059-0.068
	c-0.129-0.112-0.325-0.099-0.438,0.031c-0.072,0.083-0.135,0.149-0.189,0.201l0.001,0.001c-0.049,0.047-0.095,0.085-0.137,0.113
	l0.001,0.001L83.15,70.96c-0.021,0.016-0.045,0.027-0.07,0.035c-0.024,0.008-0.052,0.012-0.084,0.012
	c-0.092,0-0.164-0.011-0.216-0.031c-0.029-0.013-0.052-0.028-0.066-0.047c-0.025-0.043-0.046-0.109-0.063-0.201
	c-0.02-0.111-0.03-0.257-0.03-0.437v-8.323c0-0.819-0.155-1.549-0.466-2.185c-0.312-0.64-0.779-1.183-1.4-1.627l0,0
	c-0.609-0.438-1.35-0.766-2.218-0.982C77.904,57.017,77.203,56.917,76.435,56.876L76.435,56.876z M76.435,71.108v-0.734
	c0.14-0.108,0.289-0.234,0.447-0.377c0.158-0.144,0.329-0.307,0.51-0.49V65.18l-0.03,0.011l-0.004,0.001l0,0
	c-0.331,0.108-0.64,0.224-0.923,0.347v-0.672c0.23-0.093,0.475-0.181,0.731-0.265l0.417-0.143c0.037-0.016,0.077-0.024,0.119-0.024
	c0.172,0,0.312,0.14,0.312,0.312v4.887h-0.001c0,0.078-0.029,0.155-0.088,0.216c-0.217,0.223-0.427,0.426-0.628,0.607
	c-0.203,0.184-0.394,0.342-0.569,0.473l0,0l-0.012,0.009C76.623,71.001,76.529,71.058,76.435,71.108z M72.393,73.754
	c-0.563,0-1.08-0.095-1.555-0.283c-0.476-0.188-0.902-0.471-1.281-0.846c-0.379-0.376-0.664-0.802-0.855-1.276
	c-0.189-0.472-0.285-0.989-0.285-1.549c0-0.607,0.127-1.178,0.381-1.709c0.252-0.527,0.627-1.014,1.124-1.457l0.005-0.004
	c0.484-0.435,1.098-0.84,1.84-1.218c0.734-0.372,1.598-0.719,2.59-1.039l2.079-0.671v0.651l-1.89,0.609
	c-0.96,0.31-1.793,0.645-2.5,1.003c-0.691,0.352-1.26,0.728-1.705,1.126l-0.006,0.006c-0.436,0.388-0.76,0.808-0.977,1.26
	c-0.213,0.447-0.32,0.929-0.32,1.442c0,0.482,0.08,0.923,0.24,1.318c0.158,0.396,0.398,0.751,0.717,1.067s0.676,0.553,1.072,0.71
	s0.838,0.236,1.326,0.236c0.576,0,1.141-0.07,1.689-0.211c0.552-0.141,1.09-0.353,1.61-0.633c0.249-0.135,0.497-0.286,0.742-0.457
	v0.743c-0.148,0.093-0.298,0.18-0.448,0.261c-0.567,0.305-1.152,0.535-1.751,0.688C73.635,73.677,73.02,73.754,72.393,73.754
	L72.393,73.754z M76.435,58.864v-0.686c-0.066-0.026-0.135-0.051-0.206-0.073l-0.015-0.005c-0.396-0.124-0.859-0.187-1.39-0.187
	c-0.433,0-0.811,0.058-1.135,0.172c-0.342,0.12-0.621,0.303-0.838,0.546c-0.006,0.007-0.011,0.013-0.016,0.02
	c-0.229,0.26-0.336,0.536-0.322,0.825c0.012,0.29,0.145,0.574,0.395,0.853l0.006,0.005c0.311,0.342,0.502,0.675,0.575,1.002
	c0.07,0.315,0.031,0.635-0.118,0.959l-0.002,0.003l0,0c-0.146,0.324-0.365,0.565-0.653,0.726c-0.007,0.004-0.015,0.008-0.021,0.012
	c-0.299,0.16-0.68,0.239-1.141,0.239c-0.319,0-0.596-0.041-0.83-0.124c-0.222-0.079-0.408-0.197-0.557-0.354
	c-0.149-0.155-0.263-0.351-0.34-0.586c-0.08-0.247-0.121-0.54-0.121-0.879c0-0.557,0.131-1.06,0.392-1.511
	c0.266-0.458,0.668-0.869,1.206-1.233l0.016-0.011c0.545-0.363,1.167-0.637,1.868-0.82c0.715-0.188,1.515-0.281,2.399-0.281
	c0.292,0,0.574,0.008,0.847,0.022v-0.622c-0.273-0.015-0.556-0.022-0.847-0.022c-0.933,0-1.784,0.102-2.555,0.304
	c-0.77,0.201-1.455,0.503-2.057,0.904c-0.006,0.004-0.014,0.008-0.02,0.012c-0.615,0.417-1.082,0.896-1.395,1.438
	c-0.318,0.549-0.477,1.155-0.477,1.821c0,0.402,0.051,0.76,0.152,1.071c0.106,0.324,0.267,0.598,0.48,0.821
	c0.219,0.229,0.484,0.398,0.799,0.511c0.304,0.107,0.648,0.161,1.037,0.161c0.563,0,1.042-0.105,1.436-0.317
	c0.008-0.004,0.016-0.008,0.024-0.012c0.409-0.227,0.718-0.564,0.921-1.015l0,0c0.207-0.45,0.259-0.899,0.158-1.351
	c-0.098-0.437-0.338-0.864-0.721-1.285l-0.003-0.003c-0.152-0.169-0.231-0.324-0.237-0.464c-0.006-0.124,0.049-0.254,0.166-0.388
	c0.006-0.006,0.012-0.012,0.017-0.018c0.146-0.164,0.34-0.289,0.579-0.374c0.256-0.09,0.565-0.136,0.93-0.136
	c0.472,0,0.873,0.053,1.204,0.156l0.011,0.004C76.185,58.742,76.316,58.798,76.435,58.864L76.435,58.864z M76.435,64.866
	c-0.355,0.144-0.682,0.298-0.977,0.463c-0.497,0.277-0.909,0.586-1.236,0.926l-0.001,0.001c-0.332,0.351-0.583,0.74-0.75,1.168
	c-0.168,0.429-0.252,0.894-0.252,1.395c0,0.38,0.041,0.724,0.124,1.029c0.085,0.315,0.214,0.591,0.388,0.826l0,0
	c0.178,0.244,0.395,0.43,0.65,0.556c0.253,0.124,0.537,0.187,0.851,0.187c0.259,0,0.514-0.04,0.765-0.121
	c0.148-0.048,0.294-0.11,0.438-0.187v-0.734c-0.025,0.02-0.051,0.039-0.075,0.058c-0.181,0.122-0.365,0.213-0.553,0.273
	c-0.186,0.06-0.377,0.09-0.575,0.09c-0.222,0-0.415-0.041-0.578-0.121c-0.161-0.08-0.302-0.201-0.42-0.364h-0.001l-0.002-0.003
	c-0.127-0.171-0.223-0.377-0.287-0.619c-0.068-0.252-0.103-0.542-0.103-0.869c0-0.425,0.069-0.814,0.208-1.168
	c0.138-0.354,0.345-0.677,0.621-0.967c0.285-0.296,0.648-0.567,1.089-0.813c0.208-0.116,0.433-0.227,0.676-0.332V64.866z"/>
<path fill="#F0756C" d="M29.071,16.036h0.316c0.137,0,0.252,0.088,0.294,0.21l8.3,19.896l0.006,0.016
	c0.213,0.49,0.416,0.897,0.61,1.221c0.185,0.309,0.358,0.536,0.521,0.679l0.012,0.011c0.15,0.134,0.342,0.24,0.575,0.318
	c0.252,0.085,0.553,0.138,0.901,0.159c0.165,0.01,0.292,0.146,0.292,0.31h0.001v0.84c0,0.172-0.139,0.311-0.311,0.311h-5.522h-5.538
	c-0.171,0-0.311-0.139-0.311-0.311v-0.84c0-0.172,0.14-0.311,0.311-0.311l0.017,0c0.714-0.022,1.287-0.078,1.718-0.167
	c0.391-0.081,0.644-0.181,0.76-0.301l0.004-0.004l0,0c0.096-0.096,0.133-0.267,0.112-0.512c-0.026-0.306-0.143-0.698-0.351-1.175
	l-0.006-0.016l-1.248-3.041h-1.462v-0.622h1.669v0.001c0.122,0,0.237,0.073,0.287,0.192l1.328,3.235l0.001,0.002
	c0.236,0.542,0.371,1,0.402,1.372c0.038,0.435-0.06,0.77-0.292,1.001l0,0c-0.206,0.21-0.566,0.368-1.079,0.474
	c-0.407,0.084-0.923,0.141-1.548,0.169v0.231h5.228h5.211v-0.246c-0.284-0.033-0.54-0.087-0.769-0.164
	c-0.315-0.106-0.58-0.254-0.793-0.444l-0.007-0.006c-0.209-0.184-0.423-0.46-0.643-0.827c-0.205-0.343-0.42-0.774-0.646-1.292
	c-0.004-0.008-0.008-0.016-0.012-0.025l-8.228-19.723h-0.109V16.036L29.071,16.036z M29.071,32.026h1.145
	c0.171,0,0.311-0.139,0.311-0.311c0-0.052-0.013-0.102-0.036-0.145l-1.42-3.472v1.634l0.684,1.672h-0.684V32.026z M20.15,36.129
	l8.008-19.898c0.048-0.121,0.165-0.194,0.288-0.194v-0.001h0.462h0.164v0.622h-0.164h-0.253l-7.929,19.704l-0.006,0.017
	c-0.212,0.522-0.421,0.959-0.624,1.311c-0.205,0.355-0.409,0.627-0.608,0.813c-0.007,0.008-0.015,0.016-0.023,0.023
	c-0.221,0.194-0.493,0.345-0.816,0.452c-0.232,0.077-0.493,0.131-0.782,0.164v0.245h3.327h3.31v-0.228
	c-0.695-0.024-1.262-0.097-1.7-0.22c-0.561-0.157-0.934-0.4-1.119-0.731h0l-0.001-0.002c-0.176-0.32-0.209-0.785-0.1-1.395
	c0.101-0.558,0.322-1.254,0.666-2.087l0.664-1.786c0.036-0.132,0.156-0.229,0.3-0.229h5.86v0.622h-5.645l-0.602,1.619l-0.003,0.01
	l0,0c-0.327,0.794-0.537,1.448-0.629,1.961c-0.083,0.462-0.072,0.791,0.033,0.984l0,0c0.102,0.182,0.35,0.328,0.742,0.438
	c0.452,0.126,1.069,0.194,1.85,0.206c0.17,0.002,0.306,0.14,0.306,0.31h0.001v0.84c0,0.172-0.139,0.311-0.311,0.311h-3.621h-3.638
	c-0.171,0-0.311-0.139-0.311-0.311v-0.84c0-0.172,0.139-0.311,0.311-0.311h0.001c0.344-0.021,0.643-0.074,0.897-0.158
	c0.243-0.081,0.443-0.19,0.6-0.328l0.014-0.012c0.152-0.143,0.316-0.366,0.491-0.669c0.187-0.324,0.383-0.735,0.585-1.233
	L20.15,36.129L20.15,36.129z M29.071,28.098l-1.827-4.467c-0.001-0.17-0.14-0.309-0.311-0.309h-0.022v0.001
	c-0.039,0-0.078,0.007-0.116,0.023c-0.118,0.048-0.19,0.161-0.193,0.281l-3.155,7.974c-0.063,0.16,0.015,0.34,0.175,0.403
	c0.038,0.015,0.076,0.022,0.114,0.022l0,0h5.335v-0.622h-4.878l2.735-6.913l2.143,5.241V28.098z"/>
<rect x="70.041" y="14.926" transform="matrix(-0.6836 -0.7298 0.7298 -0.6836 100.6796 101.2884)" fill-rule="evenodd" clip-rule="evenodd" fill="#FFFFFF" width="4.504" height="27.793"/>
<g>
	
		<rect x="70.6" y="15.122" transform="matrix(-0.6836 -0.7298 0.7298 -0.6836 99.5882 98.2375)" fill-rule="evenodd" clip-rule="evenodd" fill="#FFCD61" width="0.973" height="24.825"/>
	
		<rect x="78.628" y="20.026" transform="matrix(-0.6836 -0.7298 0.7298 -0.6836 119.4667 92.368)" fill-rule="evenodd" clip-rule="evenodd" fill="#FFCD61" width="2.251" height="0.529"/>
	
		<rect x="77.361" y="21.212" transform="matrix(-0.6838 -0.7297 0.7297 -0.6838 116.4806 93.4345)" fill-rule="evenodd" clip-rule="evenodd" fill="#FFCD61" width="2.252" height="0.53"/>
	
		<rect x="76.095" y="22.399" transform="matrix(-0.6838 -0.7297 0.7297 -0.6838 113.4831 94.508)" fill-rule="evenodd" clip-rule="evenodd" fill="#FFCD61" width="2.252" height="0.529"/>
	
		<rect x="74.828" y="23.585" transform="matrix(-0.6838 -0.7297 0.7297 -0.6838 110.4856 95.5815)" fill-rule="evenodd" clip-rule="evenodd" fill="#FFCD61" width="2.252" height="0.53"/>
	
		<rect x="73.562" y="24.771" transform="matrix(-0.6839 -0.7296 0.7296 -0.6839 107.4988 96.6501)" fill-rule="evenodd" clip-rule="evenodd" fill="#FFCD61" width="2.252" height="0.529"/>
	
		<rect x="72.297" y="25.957" transform="matrix(-0.6835 -0.7299 0.7299 -0.6835 104.4682 97.7379)" fill-rule="evenodd" clip-rule="evenodd" fill="#FFCD61" width="2.252" height="0.529"/>
	
		<rect x="71.03" y="27.143" transform="matrix(-0.6835 -0.7299 0.7299 -0.6835 101.4708 98.8109)" fill-rule="evenodd" clip-rule="evenodd" fill="#FFCD61" width="2.252" height="0.53"/>
	
		<rect x="69.764" y="28.33" transform="matrix(-0.6838 -0.7297 0.7297 -0.6838 98.4959 99.8751)" fill-rule="evenodd" clip-rule="evenodd" fill="#FFCD61" width="2.252" height="0.529"/>
	
		<rect x="68.498" y="29.516" transform="matrix(-0.6838 -0.7297 0.7297 -0.6838 95.4985 100.9486)" fill-rule="evenodd" clip-rule="evenodd" fill="#FFCD61" width="2.252" height="0.529"/>
	
		<rect x="67.232" y="30.702" transform="matrix(-0.6836 -0.7298 0.7298 -0.6836 92.4889 102.0266)" fill-rule="evenodd" clip-rule="evenodd" fill="#FFCD61" width="2.251" height="0.529"/>
	
		<rect x="65.966" y="31.888" transform="matrix(-0.6835 -0.7299 0.7299 -0.6835 89.4811 103.1027)" fill-rule="evenodd" clip-rule="evenodd" fill="#FFCD61" width="2.252" height="0.53"/>
	
		<rect x="64.7" y="33.075" transform="matrix(-0.6838 -0.7297 0.7297 -0.6838 86.5061 104.1691)" fill-rule="evenodd" clip-rule="evenodd" fill="#FFCD61" width="2.252" height="0.529"/>
	
		<rect x="63.433" y="34.261" transform="matrix(-0.6838 -0.7297 0.7297 -0.6838 83.5086 105.2426)" fill-rule="evenodd" clip-rule="evenodd" fill="#FFCD61" width="2.252" height="0.529"/>
	
		<rect x="62.168" y="35.448" transform="matrix(-0.6835 -0.7299 0.7299 -0.6835 80.4896 106.3219)" fill-rule="evenodd" clip-rule="evenodd" fill="#FFCD61" width="2.252" height="0.528"/>
</g>
<g>
	<polygon fill-rule="evenodd" clip-rule="evenodd" fill="#FFC445" points="38.465,16.27 61.171,16.27 68.664,23.655 68.664,58.979 
		38.465,58.979 	"/>
	<polygon fill-rule="evenodd" clip-rule="evenodd" fill="#5896CC" points="61.171,16.27 68.664,23.655 61.171,23.655 	"/>
</g>
<path fill="#5896CC" d="M57.799,40.046c-0.02-0.223-0.215-0.388-0.438-0.369c-0.224,0.019-0.389,0.215-0.369,0.438
	c0.004,0.055,0.007,0.109,0.007,0.165c0,0.478-0.185,0.907-0.495,1.227c-0.316,0.326-0.766,0.543-1.287,0.588
	c-0.066,0.005-0.135,0.008-0.205,0.008c-0.617,0-1.196-0.234-1.633-0.611c-0.431-0.373-0.722-0.884-0.771-1.447
	c-0.011-0.122-0.016-0.244-0.016-0.364c0-1.065,0.413-2.021,1.106-2.736c0.699-0.721,1.687-1.198,2.828-1.297
	c0.145-0.013,0.294-0.02,0.445-0.02c1.334,0,2.586,0.506,3.53,1.323c0.938,0.812,1.573,1.931,1.68,3.164
	c0.017,0.189,0.024,0.377,0.024,0.564c0,1.651-0.641,3.136-1.717,4.245c-1.083,1.115-2.608,1.854-4.369,2.007
	c-0.225,0.02-0.454,0.029-0.688,0.029c-2.051,0-3.975-0.777-5.427-2.034c-1.446-1.251-2.423-2.978-2.589-4.881
	c-0.022-0.256-0.034-0.511-0.034-0.764c0-2.238,0.869-4.25,2.329-5.753c1.466-1.509,3.529-2.51,5.911-2.717
	c0.303-0.026,0.612-0.04,0.927-0.04c0.224,0,0.405-0.181,0.405-0.405c0-0.224-0.182-0.405-0.405-0.405
	c-0.336,0-0.669,0.014-0.996,0.043c-2.581,0.224-4.823,1.314-6.421,2.96c-1.604,1.653-2.559,3.862-2.559,6.317
	c0,0.274,0.012,0.552,0.037,0.833c0.184,2.12,1.267,4.037,2.868,5.422c1.595,1.38,3.705,2.234,5.955,2.234
	c0.256,0,0.508-0.011,0.756-0.033c1.961-0.17,3.664-0.999,4.88-2.251c1.222-1.258,1.948-2.94,1.948-4.808
	c0-0.208-0.01-0.419-0.027-0.634c-0.127-1.449-0.865-2.759-1.959-3.705c-1.086-0.94-2.525-1.522-4.059-1.522
	c-0.173,0-0.346,0.007-0.516,0.022c-1.34,0.117-2.505,0.684-3.338,1.542c-0.838,0.864-1.337,2.018-1.337,3.299
	c0,0.143,0.007,0.287,0.019,0.434c0.068,0.779,0.465,1.481,1.049,1.988c0.58,0.501,1.346,0.811,2.162,0.811
	c0.092,0,0.184-0.004,0.275-0.012c0.719-0.063,1.347-0.369,1.796-0.832c0.455-0.469,0.727-1.095,0.727-1.791
	C57.81,40.205,57.807,40.126,57.799,40.046z"/>
<g>
	<circle fill-rule="evenodd" clip-rule="evenodd" fill="#FFFFFF" cx="48.131" cy="34.195" r="1.108"/>
	
		<rect x="40.942" y="33.942" transform="matrix(0.4688 -0.8833 0.8833 0.4688 -4.637 60.6791)" fill="#FFFFFF" width="14.378" height="0.506"/>
	<circle fill-rule="evenodd" clip-rule="evenodd" fill="#FFFFFF" cx="51.5" cy="27.845" r="1.108"/>
	<circle fill-rule="evenodd" clip-rule="evenodd" fill="#FFFFFF" cx="44.761" cy="40.545" r="1.108"/>
</g>
<g>
	<circle fill-rule="evenodd" clip-rule="evenodd" fill="#5896CC" cx="53.848" cy="46.904" r="1.609"/>
	<circle fill-rule="evenodd" clip-rule="evenodd" fill="#FFC445" cx="53.849" cy="46.904" r="1.147"/>
</g>
<g>
	<circle fill-rule="evenodd" clip-rule="evenodd" fill="#5896CC" cx="59.245" cy="35.531" r="1.61"/>
	<circle fill-rule="evenodd" clip-rule="evenodd" fill="#FFC445" cx="59.245" cy="35.531" r="1.147"/>
</g>
<g>
	<circle fill-rule="evenodd" clip-rule="evenodd" fill="#5896CC" cx="57.387" cy="40.208" r="1.609"/>
	<circle fill-rule="evenodd" clip-rule="evenodd" fill="#FFC445" cx="57.387" cy="40.208" r="1.147"/>
</g>
<g>
	<circle fill-rule="evenodd" clip-rule="evenodd" fill="#5896CC" cx="56.859" cy="30.632" r="1.609"/>
	<circle fill-rule="evenodd" clip-rule="evenodd" fill="#FFC445" cx="56.86" cy="30.632" r="1.147"/>
</g>
<g>
	<circle fill-rule="evenodd" clip-rule="evenodd" fill="#5896CC" cx="61.868" cy="43.459" r="1.609"/>
	<circle fill-rule="evenodd" clip-rule="evenodd" fill="#FFC445" cx="61.868" cy="43.459" r="1.147"/>
</g>
<path fill-rule="evenodd" clip-rule="evenodd" fill="#4D86B8" d="M44.852,27.642l2.091,5.713l-5.628-2.311l-17.836-18.54
	c-0.51-0.53-0.494-1.382,0.037-1.893l1.607-1.546c0.53-0.51,1.382-0.494,1.893,0.037L44.852,27.642z"/>
<path fill-rule="evenodd" clip-rule="evenodd" fill="#5896CC" d="M44.852,27.642l2.091,5.713l-4.014-4.172L24.319,9.84l0.804-0.773
	c0.53-0.51,1.382-0.494,1.892,0.037L44.852,27.642z"/>
<path fill-rule="evenodd" clip-rule="evenodd" fill="#C0F7FC" d="M44.852,27.642l2.091,5.713l-5.628-2.311L24.846,13.926
	c1.042-1.41,2.222-2.527,3.537-3.402L44.852,27.642z"/>
<path fill-rule="evenodd" clip-rule="evenodd" fill="#FFFFFF" d="M44.852,27.642l2.091,5.713l-4.014-4.172L26.465,12.069
	c0.603-0.583,1.243-1.097,1.917-1.546L44.852,27.642z"/>
<path fill-rule="evenodd" clip-rule="evenodd" fill="#4D86B8" d="M44.852,27.642l2.091,5.713l-5.628-2.311L25.931,15.054
	c1.034-1.431,2.214-2.547,3.537-3.403L44.852,27.642z"/>
<path fill-rule="evenodd" clip-rule="evenodd" fill="#5896CC" d="M44.725,27.519l2.075,5.668l-3.982-4.14l-15.27-15.872
	c0.6-0.581,1.238-1.086,1.913-1.523L44.725,27.519z"/>
<path fill-rule="evenodd" clip-rule="evenodd" fill="#C0F7FC" d="M44.852,27.642l2.091,5.713l-5.628-2.311
	c0.461-0.645,1-1.271,1.614-1.861C43.543,28.593,44.19,28.079,44.852,27.642z"/>
<path fill-rule="evenodd" clip-rule="evenodd" fill="#FFFFFF" d="M44.852,27.643l2.092,5.713l-4.014-4.172
	C43.543,28.593,44.19,28.079,44.852,27.643z"/>
<path fill-rule="evenodd" clip-rule="evenodd" fill="#5896CC" d="M46.252,31.468l0.691,1.887l-1.859-0.763
	c0.152-0.213,0.331-0.42,0.533-0.615C45.82,31.782,46.034,31.612,46.252,31.468z"/>
<rect x="38.465" y="74.351" fill-rule="evenodd" clip-rule="evenodd" fill="#4D86B8" width="30.199" height="12.21"/>
<path fill-rule="evenodd" clip-rule="evenodd" fill="#FFFFFF" d="M39.92,82.587h13.287v2.364H39.92V82.587L39.92,82.587z
	 M53.923,82.587h2.084v2.364h-2.084V82.587L53.923,82.587z M56.723,82.587h10.486v2.364H56.723V82.587L56.723,82.587z M39.92,79.243
	h2.084v2.364H39.92V79.243L39.92,79.243z M42.721,79.243h2.084v2.364h-2.084V79.243L42.721,79.243z M45.521,79.243h2.084v2.364
	h-2.084V79.243L45.521,79.243z M48.322,79.243h2.084v2.364h-2.084V79.243L48.322,79.243z M51.123,79.243h2.084v2.364h-2.084V79.243
	L51.123,79.243z M53.923,79.243h2.084v2.364h-2.084V79.243L53.923,79.243z M56.724,79.243h2.084v2.364h-2.084V79.243L56.724,79.243z
	 M59.523,79.243h2.084v2.364h-2.084V79.243L59.523,79.243z M62.324,79.243h2.084v2.364h-2.084V79.243L62.324,79.243z M65.125,79.243
	h2.084v2.364h-2.084V79.243L65.125,79.243z M39.92,75.96h2.084v2.364H39.92V75.96L39.92,75.96z M42.721,75.96h2.084v2.364h-2.084
	V75.96L42.721,75.96z M45.521,75.96h2.084v2.364h-2.084V75.96L45.521,75.96z M48.322,75.96h2.084v2.364h-2.084V75.96L48.322,75.96z
	 M51.123,75.96h2.084v2.364h-2.084V75.96L51.123,75.96z M53.923,75.96h2.084v2.364h-2.084V75.96L53.923,75.96z M56.724,75.96h2.084
	v2.364h-2.084V75.96L56.724,75.96z M59.523,75.96h2.084v2.364h-2.084V75.96L59.523,75.96z M62.324,75.96h2.084v2.364h-2.084V75.96
	L62.324,75.96z M65.125,75.96h2.084v2.364h-2.084V75.96z"/>
<g>
	<g>
		<rect x="53.33" y="72.58" fill="#FFFFFF" width="0.47" height="1.771"/>
		<path fill="#FFFFFF" d="M53.33,72.58c0-0.647,0.265-1.235,0.691-1.662c0.426-0.427,1.016-0.691,1.662-0.691h4.15v0.47h-4.15
			c-0.518,0-0.988,0.212-1.33,0.554S53.8,72.063,53.8,72.58H53.33z"/>
		<path fill="#FFFFFF" d="M68.789,68.342c0,0.647-0.25,1.236-0.652,1.663s-0.959,0.691-1.569,0.691H55.684v-0.47h10.884
			c0.489,0,0.933-0.212,1.256-0.554c0.322-0.342,0.522-0.813,0.522-1.331H68.789z"/>
		<path fill="#FFFFFF" d="M68.789,68.342c0-0.647-0.266-1.236-0.691-1.663c-0.427-0.426-1.016-0.69-1.663-0.69H54.899v0.47h11.535
			c0.519,0,0.989,0.212,1.331,0.553c0.342,0.342,0.553,0.813,0.553,1.331H68.789z"/>
		<path fill="#FFFFFF" d="M38.461,64.104c0,0.647,0.265,1.236,0.691,1.663c0.427,0.426,1.015,0.691,1.663,0.691h14.084v-0.47H40.815
			c-0.518,0-0.989-0.213-1.331-0.554c-0.342-0.342-0.554-0.813-0.554-1.331H38.461z"/>
		<path fill="#FFFFFF" d="M38.461,64.104c0-0.647,0.265-1.236,0.691-1.663c0.427-0.426,1.015-0.691,1.663-0.691h23.323v0.47H40.815
			c-0.518,0-0.989,0.212-1.331,0.554c-0.342,0.342-0.554,0.813-0.554,1.331H38.461z"/>
	</g>
	<path fill="#FFFFFF" d="M64.139,61.751h7.209c0.254,0,0.439-0.036,0.566-0.101c0.09-0.047,0.146-0.106,0.169-0.176
		c0.026-0.078,0.019-0.179-0.018-0.292c-0.064-0.199-0.214-0.426-0.435-0.655l-5.742-5.973l0.336-0.322l5.74,5.973
		c0.27,0.28,0.457,0.569,0.543,0.836c0.066,0.207,0.074,0.405,0.016,0.581c-0.063,0.187-0.192,0.339-0.398,0.443
		c-0.189,0.097-0.447,0.151-0.777,0.151h-7.209V61.751z"/>
</g>
<g>
	<path fill-rule="evenodd" clip-rule="evenodd" fill="#E3E2E0" d="M58.634,52.795l2.556,1.914c0.349,0.261,2.274,1.188,2.564,0.862
		s-0.934-1.599-1.287-1.853l-1.996-1.33C59.327,51.625,58.353,52.586,58.634,52.795z"/>
	<path fill-rule="evenodd" clip-rule="evenodd" fill="#FFFDFA" d="M57.387,47.238l2.591,2.941c-0.079-0.657,0.835-1.054,1.364-0.579
		c-0.174-0.663,0.656-1.107,1.219-0.77c-0.059-0.637,0.871-0.998,1.354-0.454l2.208,2.49c3.255,3.668-1.751,6.364-3.68,4.25
		l-6.24-6.856C55.412,47.395,56.756,46.509,57.387,47.238z"/>
	<path fill-rule="evenodd" clip-rule="evenodd" fill="#E3E2E0" d="M63.371,49.67c0,0-0.428-0.502-0.811-0.947
		c-0.003,0.035-0.003,0.071,0,0.108c-0.049-0.03-0.101-0.053-0.153-0.071C62.84,49.174,63.371,49.67,63.371,49.67L63.371,49.67z
		 M61.105,51.349v-0.003l0.014,0.017L61.105,51.349L61.105,51.349z M61.105,49.461v-0.008c0.084,0.034,0.164,0.083,0.236,0.148
		c-0.012-0.044-0.02-0.087-0.021-0.129c0.428,0.488,0.954,1.095,0.954,1.095S61.553,49.897,61.105,49.461z M61.105,49.453v0.008
		l-0.014-0.014L61.105,49.453L61.105,49.453z M61.105,51.346v0.003c-0.107-0.108-0.824-0.834-1.128-1.169
		c0.005,0.006,0.003-0.002-0.002-0.019c-0.005-0.059-0.003-0.115,0.007-0.169C60.374,50.451,61.006,51.223,61.105,51.346z"/>
</g>
</svg>
